<?xml version="1.0" encoding="UTF-8"?>
<svg width="57px" height="18px" viewBox="0 0 57 18" version="1.1" xmlns="http://www.w3.org/2000/svg" xmlns:xlink="http://www.w3.org/1999/xlink">
    <g stroke="none" stroke-width="1" fill="none" fill-rule="evenodd">
        <g transform="translate(-137.000000, -24.000000)" fill="#FFDC00">
            <g>
                <g transform="translate(137.000000, 24.000000)">
                    <g>
                        <g id="Group-22">
                            <path d="M14.1980723,10.3347692 L10.820825,10.3347692 L14.919907,4.07488352 L15.1121437,4.07488352 L14.1980723,10.3347692 Z M9.8666095,3.37118242 L0.0966182962,17.5233758 L6.11246304,17.5233758 L8.08815419,14.5072879 L13.5962151,14.5072879 L13.1872007,17.5233758 L18.4333409,17.5233758 L20.6959481,0.35461978 L15.9065407,0.35461978 C12.465366,0.35461978 11.4546459,1.05927033 9.8666095,3.37118242 Z" id="Fill-16"></path>
                            <path d="M49.4275602,4.80440967 L56.5750115,4.80440967 C57.2723053,1.58688 56.5504706,0.10368 50.0050279,0.10368 C43.0993496,0.10368 41.2699947,1.25979429 38.3828073,8.44919209 C36.1445895,14.0289547 36.4090855,17.7748536 44.2301987,17.7748536 C51.4490003,17.7748536 52.70013,15.5632668 55.5877718,8.22274813 L56.1894775,6.68922725 L49.7887047,6.68922725 C47.6471355,6.68922725 47.2137317,6.8898778 46.2752708,9.12804923 L45.5534361,10.8365855 L48.7301148,10.8365855 C47.9360209,13.0238031 47.4062715,13.3257284 45.4576964,13.3257284 C42.9786146,13.3257284 42.5212759,12.722036 44.2301987,8.44919209 C45.6741711,4.85362286 46.491897,4.80440967 49.4275602,4.80440967" id="Fill-18"></path>
                            <path d="M38.550685,3.92426901 L40.0188953,0.354651429 L27.2164409,0.354651429 C24.064303,0.354651429 23.5110732,0.681420659 22.2117707,3.82394374 L21.6818698,5.10601846 L27.6737796,5.10601846 L22.6203306,17.5232492 L28.4921114,17.5232492 L33.5216254,5.10601846 L36.4091158,5.10601846 C37.901261,5.10601846 38.2134753,4.75329758 38.550685,3.92426901" id="Fill-20"></path>
                        </g>
                    </g>
                </g>
            </g>
        </g>
    </g>
</svg>